<svg width="196" height="196" viewBox="0 0 196 196" fill="none" xmlns="http://www.w3.org/2000/svg">
<rect y="196" width="196" height="196" rx="98" transform="rotate(-90 0 196)" fill="#FFCE33"/>
<path d="M38.4799 97.5103C38.4799 98.257 38.3132 98.9237 37.9799 99.5103C37.6332 100.097 37.1666 100.564 36.5799 100.91C35.9932 101.257 35.3199 101.43 34.5599 101.43C33.8532 101.43 33.2199 101.264 32.6599 100.93C32.0866 100.584 31.6332 100.117 31.2999 99.5303C30.9532 98.9437 30.7799 98.2703 30.7799 97.5103C30.7799 96.7903 30.9532 96.1503 31.2999 95.5903C31.6332 95.0303 32.0866 94.5837 32.6599 94.2503C33.2332 93.917 33.8666 93.7437 34.5599 93.7303C35.3199 93.7303 35.9932 93.897 36.5799 94.2303C37.1666 94.5637 37.6332 95.017 37.9799 95.5903C38.3132 96.1637 38.4799 96.8037 38.4799 97.5103Z" fill="#22436C"/>
<path d="M41.3168 84.7609L27.1461 80.1566L28.821 75.0018C29.13 74.0508 29.5794 73.2715 30.1694 72.6641C30.7507 72.0399 31.4433 71.634 32.2473 71.4466C33.0385 71.2551 33.897 71.3097 34.8227 71.6105C35.7357 71.9072 36.4539 72.3718 36.9774 73.0046C37.5049 73.6246 37.8288 74.3537 37.949 75.1919C38.0692 76.03 37.9748 76.9246 37.6658 77.8757L36.7202 80.7859L42.0461 82.5164L41.3168 84.7609ZM34.723 80.137L35.6871 77.1697C35.8519 76.6625 35.8947 76.1857 35.8154 75.7393C35.7361 75.293 35.554 74.9043 35.2689 74.5734C34.9712 74.2384 34.5751 73.9905 34.0806 73.8298C33.586 73.6691 33.1262 73.6389 32.7011 73.7391C32.2633 73.8352 31.8875 74.0425 31.5737 74.3611C31.2472 74.6756 31.0015 75.0865 30.8367 75.5937L29.8726 78.561L34.723 80.137Z" fill="#22436C"/>
<path d="M47.1366 69.3319L38.1623 56.3346L39.8786 53.9723L55.0129 58.491L53.5317 60.5297L50.1595 59.4888L46.5976 64.3915L48.6178 67.2931L47.1366 69.3319ZM45.2983 62.607L48.0374 58.837L40.1753 56.388L40.5632 55.8541L45.2983 62.607Z" fill="#22436C"/>
<path d="M64.2805 51.1039C63.5254 51.6525 62.7224 52.0217 61.8714 52.2115C61.0126 52.3904 60.1764 52.3964 59.3628 52.2294C58.5493 52.0623 57.7995 51.7336 57.1135 51.2431L58.2378 49.388C59.0698 49.9207 59.9113 50.1828 60.7622 50.1744C61.6131 50.166 62.4053 49.8953 63.1388 49.3624C63.5702 49.0489 63.9008 48.7099 64.1303 48.3453C64.3521 47.97 64.4591 47.5956 64.4514 47.2221C64.4545 46.8407 64.3385 46.4883 64.1034 46.1647C63.7821 45.7224 63.4034 45.4619 62.9672 45.3833C62.531 45.3047 62.0153 45.3662 61.4202 45.5678L58.6377 46.5017C57.5278 46.8796 56.5279 46.9551 55.6379 46.7282C54.7401 46.4905 54.009 45.9834 53.4447 45.2067C52.951 44.5271 52.6872 43.8124 52.6532 43.0625C52.6114 42.3017 52.776 41.5642 53.1469 40.8497C53.5285 40.1274 54.0969 39.492 54.852 38.9434C55.5747 38.4183 56.3268 38.0697 57.1081 37.8975C57.8817 37.7146 58.6394 37.6914 59.3815 37.828C60.1343 37.9568 60.8193 38.2419 61.4367 38.6833L60.3565 40.5311C59.6568 40.0671 58.9281 39.8467 58.1703 39.8699C57.4233 39.8852 56.7208 40.1319 56.0628 40.6099C55.6637 40.8999 55.3641 41.2247 55.1639 41.5844C54.956 41.9333 54.8597 42.2999 54.8752 42.6842C54.8937 43.0498 55.0244 43.3998 55.2673 43.7342C55.5494 44.1226 55.9243 44.3776 56.3918 44.4994C56.8594 44.6212 57.4015 44.5734 58.0182 44.3561L60.6036 43.4912C61.7753 43.085 62.8036 42.9806 63.6887 43.178C64.566 43.3647 65.2985 43.8625 65.8863 44.6715C66.3722 45.3403 66.6253 46.0629 66.6455 46.8393C66.6765 47.6079 66.4943 48.3665 66.0989 49.1153C65.6956 49.8533 65.0895 50.5161 64.2805 51.1039Z" fill="#22436C"/>
<path d="M81.1297 41.7541C80.242 42.0425 79.3642 42.1454 78.4963 42.0629C77.6242 41.9678 76.8271 41.7151 76.1049 41.3048C75.3828 40.8945 74.7713 40.3502 74.2705 39.6717L75.9131 38.2548C76.5397 39.0185 77.259 39.5279 78.0708 39.7828C78.8827 40.0377 79.7198 40.0251 80.582 39.745C81.0893 39.5801 81.5084 39.3598 81.8394 39.0841C82.1662 38.7956 82.3837 38.4726 82.4918 38.115C82.6126 37.7533 82.6112 37.3823 82.4876 37.0018C82.3187 36.4819 82.039 36.1172 81.6484 35.9076C81.2579 35.698 80.7485 35.5972 80.1201 35.6051L77.1852 35.6334C76.0129 35.6498 75.0386 35.4126 74.2623 34.9218C73.4819 34.4183 72.9433 33.7101 72.6466 32.7971C72.3871 31.9982 72.357 31.2369 72.5565 30.5132C72.7518 29.7768 73.1362 29.1261 73.7097 28.5612C74.2959 27.9922 75.0329 27.5635 75.9205 27.2751C76.7701 26.9991 77.5931 26.8999 78.3894 26.9776C79.1816 27.0427 79.9095 27.2548 80.5729 27.614C81.2491 27.9691 81.8126 28.452 82.2633 29.0626L80.665 30.4862C80.1429 29.8286 79.518 29.3938 78.7901 29.1817C78.075 28.9654 77.3306 28.983 76.5571 29.2343C76.0879 29.3868 75.7025 29.6031 75.4011 29.8833C75.0954 30.1508 74.8906 30.4697 74.7866 30.84C74.6912 31.1935 74.7073 31.5667 74.835 31.9598C74.9834 32.4164 75.261 32.7748 75.6681 33.035C76.0751 33.2953 76.6054 33.4174 77.2591 33.4013L79.9853 33.3777C81.2251 33.3534 82.2354 33.5719 83.0162 34.0332C83.7928 34.4818 84.3356 35.1817 84.6446 36.1327C84.9001 36.919 84.9175 37.6844 84.6968 38.429C84.4888 39.1695 84.0811 39.8348 83.4736 40.4247C82.8621 41.0019 82.0808 41.445 81.1297 41.7541Z" fill="#22436C"/>
<path d="M96.8154 40L96.8154 25.1L99.1754 25.1L99.1754 40L96.8154 40Z" fill="#22436C"/>
<path d="M114.495 43.1977C113.468 42.8639 112.571 42.369 111.802 41.7128C111.047 41.0608 110.44 40.2959 109.982 39.4181C109.537 38.5445 109.269 37.602 109.177 36.5907C109.097 35.5836 109.229 34.5538 109.571 33.5013C109.913 32.4488 110.412 31.5384 111.068 30.7703C111.741 29.9935 112.512 29.3889 113.382 28.9565C114.255 28.5113 115.194 28.2554 116.197 28.1888C117.204 28.1095 118.221 28.2367 119.248 28.5704C120.288 28.9083 121.186 29.4032 121.941 30.0553C122.713 30.6987 123.322 31.4573 123.767 32.3309C124.225 33.2087 124.494 34.1512 124.573 35.1583C124.652 36.1655 124.521 37.1953 124.179 38.2478C123.837 39.3003 123.332 40.2086 122.663 40.9726C122.007 41.7408 121.242 42.3474 120.368 42.7926C119.494 43.2377 118.554 43.5 117.547 43.5793C116.54 43.6586 115.522 43.5314 114.495 43.1977ZM115.163 41.1434C115.898 41.3824 116.614 41.4676 117.309 41.3991C118.017 41.3346 118.675 41.142 119.284 40.8212C119.897 40.4876 120.434 40.045 120.893 39.4934C121.357 38.9291 121.71 38.2728 121.953 37.5247C122.197 36.7765 122.294 36.0442 122.247 35.3278C122.199 34.6113 122.025 33.938 121.725 33.3078C121.425 32.6776 121.008 32.1284 120.473 31.6602C119.951 31.1962 119.322 30.8446 118.587 30.6057C117.851 30.3667 117.13 30.2794 116.422 30.3438C115.726 30.4123 115.072 30.6134 114.459 30.9469C113.846 31.2805 113.31 31.723 112.85 32.2747C112.403 32.8304 112.058 33.4824 111.815 34.2306C111.572 34.9787 111.466 35.7153 111.497 36.4403C111.544 37.1567 111.718 37.8301 112.018 38.4603C112.322 39.0778 112.742 39.6206 113.276 40.0888C113.811 40.557 114.44 40.9085 115.163 41.1434Z" fill="#22436C"/>
<path d="M127.698 47.8853L136.456 35.8309L137.993 36.9477L137.973 51.1976L137.163 50.7819L144.028 41.3326L145.921 42.708L137.163 54.7624L135.626 53.6456L135.741 39.3662L136.531 39.7422L129.607 49.2724L127.698 47.8853Z" fill="#22436C"/>
<path d="M146.441 63.4108C146.002 62.8067 145.745 62.1694 145.669 61.4989C145.605 60.8205 145.708 60.1686 145.979 59.5433C146.25 58.918 146.693 58.382 147.308 57.9353C147.879 57.52 148.49 57.2825 149.139 57.223C149.806 57.1665 150.447 57.2776 151.062 57.5563C151.687 57.8271 152.223 58.27 152.67 58.8848C153.093 59.4673 153.329 60.087 153.378 60.7438C153.437 61.3928 153.333 62.0206 153.065 62.6273C152.797 63.2339 152.387 63.7464 151.834 64.1648C151.219 64.6115 150.576 64.8724 149.906 64.9476C149.235 65.0227 148.591 64.9303 147.974 64.6702C147.367 64.4023 146.856 63.9825 146.441 63.4108Z" fill="#22436C"/>
<path d="M152.808 78.9909L164.982 75.0354L163.758 71.2693L165.755 70.6203L168.907 80.3211L166.91 80.97L165.705 77.2609L153.531 81.2163L152.808 78.9909Z" fill="#22436C"/>
<path d="M156 92.6179L170.9 92.6179L170.9 94.9779L164.34 94.9779L164.34 101.878L170.9 101.878L170.9 104.218L156 104.218L156 101.878L162.24 101.878L162.24 94.9779L156 94.9779L156 92.6179Z" fill="#22436C"/>
<path d="M153.527 114.797L167.698 119.401L166.969 121.645L152.798 117.041L153.527 114.797Z" fill="#22436C"/>
<path d="M149.115 124.697L161.17 133.455L160.053 134.993L145.803 134.973L146.219 134.162L155.668 141.028L154.293 142.921L142.238 134.163L143.355 132.626L157.634 132.741L157.258 133.531L147.728 126.607L149.115 124.697Z" fill="#22436C"/>
<path d="M136.273 141.884L145.031 153.939L143.122 155.326L138.373 148.789L139.015 148.619L138.171 158.923L135.792 160.651L136.511 151.501L137.402 152.931L126.84 148.738L129.089 147.104L136.625 150.059L136.891 146.75L134.364 143.271L136.273 141.884Z" fill="#22436C"/>
<path d="M115.927 154.758C116.637 154.527 117.323 154.48 117.984 154.615C118.649 154.764 119.237 155.063 119.748 155.514C120.259 155.965 120.632 156.552 120.866 157.275C121.085 157.947 121.122 158.6 120.978 159.236C120.825 159.888 120.522 160.464 120.067 160.962C119.616 161.473 119.029 161.846 118.306 162.081C117.622 162.303 116.959 162.336 116.32 162.18C115.684 162.036 115.119 161.743 114.625 161.3C114.131 160.858 113.77 160.309 113.543 159.654C113.308 158.931 113.259 158.239 113.395 157.578C113.53 156.917 113.817 156.333 114.255 155.827C114.698 155.332 115.255 154.976 115.927 154.758Z" fill="#22436C"/>
<path d="M102.962 156L102.962 170.9L96.6822 170.9C95.7488 170.9 94.9422 170.733 94.2622 170.4C93.5822 170.08 93.0622 169.613 92.7022 169C92.3422 168.4 92.1622 167.687 92.1622 166.86C92.1622 166.14 92.3488 165.48 92.7222 164.88C93.0822 164.293 93.6488 163.827 94.4222 163.48L94.4222 164.48C93.7422 164.213 93.1888 163.873 92.7622 163.46C92.3355 163.06 92.0288 162.607 91.8422 162.1C91.6422 161.593 91.5422 161.06 91.5422 160.5C91.5422 159.1 92.0022 158 92.9222 157.2C93.8288 156.4 95.0755 156 96.6622 156L102.962 156ZM100.602 158.1L96.4822 158.1C95.6955 158.1 95.0688 158.313 94.6022 158.74C94.1355 159.18 93.9022 159.76 93.9022 160.48C93.9022 161.213 94.1355 161.793 94.6022 162.22C95.0688 162.66 95.6955 162.88 96.4822 162.88L100.602 162.88L100.602 158.1ZM100.602 164.96L96.6222 164.96C95.9822 164.96 95.4688 165.14 95.0822 165.5C94.6955 165.873 94.5022 166.36 94.5022 166.96C94.5022 167.56 94.6955 168.027 95.0822 168.36C95.4688 168.693 95.9822 168.86 96.6222 168.86L100.602 168.86L100.602 164.96Z" fill="#22436C"/>
<path d="M80.1504 152.933C81.2029 153.275 82.0692 153.802 82.7492 154.514C83.4166 155.221 83.8592 156.038 84.077 156.964C84.2822 157.886 84.2241 158.841 83.9027 159.83L80.8929 169.094L78.6484 168.364L81.6273 159.196C81.8292 158.575 81.8753 157.98 81.7656 157.411C81.6432 156.839 81.3907 156.343 81.008 155.925C80.6126 155.502 80.1043 155.189 79.4829 154.987C78.8489 154.781 78.254 154.735 77.6983 154.849C77.1299 154.959 76.6343 155.211 76.2114 155.607C75.7759 155.998 75.4572 156.504 75.2553 157.126L72.2763 166.294L70.0509 165.571L73.0607 156.307C73.3821 155.318 73.8967 154.511 74.6045 153.886C75.3124 153.261 76.1505 152.86 77.119 152.684C78.0747 152.504 79.0852 152.587 80.1504 152.933Z" fill="#22436C"/>
<path d="M64.8669 145.619L56.1089 157.673L54.1996 156.286L62.9576 144.232L64.8669 145.619Z" fill="#22436C"/>
<path d="M53.3402 135.207L41.2859 143.965L39.8987 142.056L50.2541 134.532L46.4688 129.322L48.1677 128.088L53.3402 135.207Z" fill="#22436C"/>
<path d="M44.5232 121.107L30.3525 125.712L28.8445 121.07C28.3665 119.599 28.2504 118.228 28.4962 116.957C28.7252 115.677 29.2754 114.566 30.147 113.623C31.0185 112.681 32.158 111.982 33.5656 111.524C34.9605 111.071 36.2937 110.967 37.5652 111.213C38.824 111.463 39.9286 112.036 40.879 112.933C41.8252 113.817 42.5372 114.995 43.0152 116.466L44.5232 121.107ZM41.7967 119.512L41.0056 117.077C40.6801 116.075 40.1886 115.275 39.5312 114.675C38.8697 114.063 38.0925 113.677 37.1998 113.519C36.3071 113.36 35.3409 113.45 34.3011 113.788C33.2612 114.126 32.4352 114.625 31.823 115.287C31.194 115.94 30.7898 116.702 30.6103 117.574C30.4308 118.445 30.5038 119.382 30.8293 120.383L31.6204 122.818L41.7967 119.512Z" fill="#22436C"/>
</svg>
